<?xml version="1.0" encoding="UTF-8" standalone="no"?><svg xmlns="http://www.w3.org/2000/svg" xmlns:xlink="http://www.w3.org/1999/xlink" contentStyleType="text/css" height="577px" preserveAspectRatio="none" style="width:2581px;height:577px;background:#FFFFFF;" version="1.1" viewBox="0 0 2581 577" width="2581px" zoomAndPan="magnify"><defs/><g><!--MD5=[452be1aaf8b94e2bc4204d466ef769a4]
class Camera--><g id="elem_Camera"><rect codeLine="1" fill="#F1F1F1" height="163.418" id="Camera" rx="2.5" ry="2.5" style="stroke:#181818;stroke-width:0.5;" width="324" x="1710" y="81.19"/><ellipse cx="1841.25" cy="97.19" fill="#ADD1B2" rx="11" ry="11" style="stroke:#181818;stroke-width:1.0;"/><path d="M1843.7231,103.3331 Q1843.1421,103.6319 1842.5029,103.7813 Q1841.8638,103.9307 1841.1582,103.9307 Q1838.6514,103.9307 1837.3315,102.2789 Q1836.0117,100.627 1836.0117,97.5059 Q1836.0117,94.3765 1837.3315,92.7247 Q1838.6514,91.0728 1841.1582,91.0728 Q1841.8638,91.0728 1842.5112,91.2222 Q1843.1587,91.3716 1843.7231,91.6705 L1843.7231,94.3931 Q1843.0923,93.8121 1842.4988,93.5423 Q1841.9053,93.2725 1841.2744,93.2725 Q1839.9297,93.2725 1839.2449,94.3392 Q1838.5601,95.4058 1838.5601,97.5059 Q1838.5601,99.5977 1839.2449,100.6644 Q1839.9297,101.731 1841.2744,101.731 Q1841.9053,101.731 1842.4988,101.4612 Q1843.0923,101.1915 1843.7231,100.6104 Z " fill="#000000"/><text fill="#000000" font-family="sans-serif" font-size="14" lengthAdjust="spacing" textLength="53" x="1861.75" y="102.481">Camera</text><line style="stroke:#181818;stroke-width:0.5;" x1="1711" x2="2033" y1="113.19" y2="113.19"/><ellipse cx="1721" cy="126.9341" fill="none" rx="3" ry="3" style="stroke:#038048;stroke-width:1.0;"/><text fill="#000000" font-family="sans-serif" font-size="14" lengthAdjust="spacing" textLength="162" x="1730" y="130.7252">AspectRatio : float «set»</text><ellipse cx="1721" cy="143.4224" fill="none" rx="3" ry="3" style="stroke:#038048;stroke-width:1.0;"/><text fill="#000000" font-family="sans-serif" font-size="14" lengthAdjust="spacing" textLength="154" x="1730" y="147.2134">Pitch : float «get» «set»</text><ellipse cx="1721" cy="159.9107" fill="none" rx="3" ry="3" style="stroke:#038048;stroke-width:1.0;"/><text fill="#000000" font-family="sans-serif" font-size="14" lengthAdjust="spacing" textLength="149" x="1730" y="163.7017">Yaw : float «get» «set»</text><ellipse cx="1721" cy="176.399" fill="none" rx="3" ry="3" style="stroke:#038048;stroke-width:1.0;"/><text fill="#000000" font-family="sans-serif" font-size="14" lengthAdjust="spacing" textLength="145" x="1730" y="180.19">Fov : float «get» «set»</text><line style="stroke:#181818;stroke-width:0.5;" x1="1711" x2="2033" y1="187.1431" y2="187.1431"/><ellipse cx="1721" cy="200.8873" fill="#84BE84" rx="3" ry="3" style="stroke:#038048;stroke-width:1.0;"/><text fill="#000000" font-family="sans-serif" font-size="14" lengthAdjust="spacing" textLength="298" x="1730" y="204.6783">Camera(position:Vector3, aspectRatio:float)</text><ellipse cx="1721" cy="217.3755" fill="#84BE84" rx="3" ry="3" style="stroke:#038048;stroke-width:1.0;"/><text fill="#000000" font-family="sans-serif" font-size="14" lengthAdjust="spacing" textLength="174" x="1730" y="221.1666">GetViewMatrix() : Matrix4</text><ellipse cx="1721" cy="233.8638" fill="#84BE84" rx="3" ry="3" style="stroke:#038048;stroke-width:1.0;"/><text fill="#000000" font-family="sans-serif" font-size="14" lengthAdjust="spacing" textLength="211" x="1730" y="237.6548">GetProjectionMatrix() : Matrix4</text></g><!--MD5=[65d619c042c23702cef2ca07d67b1cf6]
class Vector3--><g id="elem_Vector3"><rect fill="#F1F1F1" height="48" id="Vector3" rx="2.5" ry="2.5" style="stroke:#181818;stroke-width:0.5;" width="85" x="1829.5" y="456.31"/><ellipse cx="1844.5" cy="472.31" fill="#ADD1B2" rx="11" ry="11" style="stroke:#181818;stroke-width:1.0;"/><path d="M1846.9731,478.4531 Q1846.3921,478.7519 1845.7529,478.9013 Q1845.1138,479.0507 1844.4082,479.0507 Q1841.9014,479.0507 1840.5815,477.3989 Q1839.2617,475.747 1839.2617,472.6259 Q1839.2617,469.4965 1840.5815,467.8447 Q1841.9014,466.1928 1844.4082,466.1928 Q1845.1138,466.1928 1845.7612,466.3422 Q1846.4087,466.4916 1846.9731,466.7905 L1846.9731,469.5131 Q1846.3423,468.9321 1845.7488,468.6623 Q1845.1553,468.3925 1844.5244,468.3925 Q1843.1797,468.3925 1842.4949,469.4592 Q1841.8101,470.5258 1841.8101,472.6259 Q1841.8101,474.7177 1842.4949,475.7844 Q1843.1797,476.851 1844.5244,476.851 Q1845.1553,476.851 1845.7488,476.5812 Q1846.3423,476.3115 1846.9731,475.7304 Z " fill="#000000"/><text fill="#000000" font-family="sans-serif" font-size="14" lengthAdjust="spacing" textLength="53" x="1858.5" y="477.601">Vector3</text><line style="stroke:#181818;stroke-width:0.5;" x1="1830.5" x2="1913.5" y1="488.31" y2="488.31"/><line style="stroke:#181818;stroke-width:0.5;" x1="1830.5" x2="1913.5" y1="496.31" y2="496.31"/></g><!--MD5=[7285b5824e67b16848be7ff6288389e6]
class Utilitario--><g id="elem_Utilitario"><rect codeLine="1" fill="#F1F1F1" height="113.9531" id="Utilitario" rx="2.5" ry="2.5" style="stroke:#181818;stroke-width:0.5;" width="514" x="7" y="105.93"/><ellipse cx="230.25" cy="121.93" fill="#A9DCDF" rx="11" ry="11" style="stroke:#181818;stroke-width:1.0;"/><path d="M230.1133,117.2781 L228.9595,122.3499 L231.2754,122.3499 Z M228.6191,115.0369 L231.6157,115.0369 L234.9609,127.43 L232.5122,127.43 L231.7485,124.367 L228.4697,124.367 L227.7227,127.43 L225.2739,127.43 Z " fill="#000000"/><text fill="#000000" font-family="sans-serif" font-size="14" font-style="italic" lengthAdjust="spacing" textLength="59" x="250.75" y="127.221">Utilitario</text><line style="stroke:#181818;stroke-width:0.5;" x1="8" x2="520" y1="137.93" y2="137.93"/><line style="stroke:#181818;stroke-width:0.5;" x1="8" x2="520" y1="145.93" y2="145.93"/><ellipse cx="18" cy="159.6741" fill="#84BE84" rx="3" ry="3" style="stroke:#038048;stroke-width:1.0;"/><text fill="#000000" font-family="sans-serif" font-size="14" lengthAdjust="spacing" text-decoration="underline" textLength="211" x="27" y="163.4652">CharProximo(atual:char) : char</text><ellipse cx="18" cy="176.1624" fill="#84BE84" rx="3" ry="3" style="stroke:#038048;stroke-width:1.0;"/><text fill="#000000" font-family="sans-serif" font-size="14" lengthAdjust="spacing" text-decoration="underline" textLength="429" x="27" y="179.9534">TeclaUpperConsole(msg:String, Control:bool, Shift:bool) : char</text><ellipse cx="18" cy="192.6507" fill="#84BE84" rx="3" ry="3" style="stroke:#038048;stroke-width:1.0;"/><text fill="#000000" font-family="sans-serif" font-size="14" lengthAdjust="spacing" text-decoration="underline" textLength="488" x="27" y="196.4417">NDC_TelaSRU(largura:int, altura:int, mousePosition:Ponto4D) : Ponto4D</text><ellipse cx="18" cy="209.139" fill="#84BE84" rx="3" ry="3" style="stroke:#038048;stroke-width:1.0;"/><text fill="#000000" font-family="sans-serif" font-size="14" lengthAdjust="spacing" text-decoration="underline" textLength="145" x="27" y="212.93">AjudaTeclado() : void</text></g><!--MD5=[6746db26fbf3328699b5b65a634cc0f3]
class Transformacao4D--><g id="elem_Transformacao4D"><rect codeLine="1" fill="#F1F1F1" height="311.8125" id="Transformacao4D" rx="2.5" ry="2.5" style="stroke:#181818;stroke-width:0.5;" width="584" x="556" y="7"/><ellipse cx="782.25" cy="23" fill="#ADD1B2" rx="11" ry="11" style="stroke:#181818;stroke-width:1.0;"/><path d="M784.7231,29.1431 Q784.1421,29.4419 783.5029,29.5913 Q782.8638,29.7407 782.1582,29.7407 Q779.6514,29.7407 778.3315,28.0889 Q777.0117,26.437 777.0117,23.3159 Q777.0117,20.1865 778.3315,18.5347 Q779.6514,16.8828 782.1582,16.8828 Q782.8638,16.8828 783.5112,17.0322 Q784.1587,17.1816 784.7231,17.4805 L784.7231,20.2031 Q784.0923,19.6221 783.4988,19.3523 Q782.9053,19.0825 782.2744,19.0825 Q780.9297,19.0825 780.2449,20.1492 Q779.5601,21.2158 779.5601,23.3159 Q779.5601,25.4077 780.2449,26.4744 Q780.9297,27.541 782.2744,27.541 Q782.9053,27.541 783.4988,27.2712 Q784.0923,27.0015 784.7231,26.4204 Z " fill="#000000"/><text fill="#000000" font-family="sans-serif" font-size="14" lengthAdjust="spacing" textLength="123" x="802.75" y="28.291">Transformacao4D</text><line style="stroke:#181818;stroke-width:0.5;" x1="557" x2="1139" y1="39" y2="39"/><ellipse cx="567" cy="52.7441" fill="none" rx="3" ry="3" style="stroke:#038048;stroke-width:1.0;"/><text fill="#000000" font-family="sans-serif" font-size="14" lengthAdjust="spacing" text-decoration="underline" textLength="558" x="576" y="56.5352">«readonly» DEG_TO_RAD : double = 0.017453292519943295769236907684886</text><line style="stroke:#181818;stroke-width:0.5;" x1="557" x2="1139" y1="63.4883" y2="63.4883"/><ellipse cx="567" cy="77.2324" fill="#84BE84" rx="3" ry="3" style="stroke:#038048;stroke-width:1.0;"/><text fill="#000000" font-family="sans-serif" font-size="14" lengthAdjust="spacing" textLength="133" x="576" y="81.0234">Transformacao4D()</text><ellipse cx="567" cy="93.7207" fill="#84BE84" rx="3" ry="3" style="stroke:#038048;stroke-width:1.0;"/><text fill="#000000" font-family="sans-serif" font-size="14" lengthAdjust="spacing" textLength="212" x="576" y="97.5117">ObterDadosOpenTK() : Matrix4</text><ellipse cx="567" cy="110.209" fill="#84BE84" rx="3" ry="3" style="stroke:#038048;stroke-width:1.0;"/><text fill="#000000" font-family="sans-serif" font-size="14" lengthAdjust="spacing" textLength="177" x="576" y="114">AtribuirIdentidade() : void</text><ellipse cx="567" cy="126.6973" fill="#84BE84" rx="3" ry="3" style="stroke:#038048;stroke-width:1.0;"/><text fill="#000000" font-family="sans-serif" font-size="14" lengthAdjust="spacing" textLength="390" x="576" y="130.4883">AtribuirTranslacao(tx:double, ty:double, tz:double) : void</text><ellipse cx="567" cy="143.1855" fill="#84BE84" rx="3" ry="3" style="stroke:#038048;stroke-width:1.0;"/><text fill="#000000" font-family="sans-serif" font-size="14" lengthAdjust="spacing" textLength="365" x="576" y="146.9766">AtribuirEscala(sX:double, sY:double, sZ:double) : void</text><ellipse cx="567" cy="159.6738" fill="#84BE84" rx="3" ry="3" style="stroke:#038048;stroke-width:1.0;"/><text fill="#000000" font-family="sans-serif" font-size="14" lengthAdjust="spacing" textLength="271" x="576" y="163.4648">AtribuirRotacaoX(radians:double) : void</text><ellipse cx="567" cy="176.1621" fill="#84BE84" rx="3" ry="3" style="stroke:#038048;stroke-width:1.0;"/><text fill="#000000" font-family="sans-serif" font-size="14" lengthAdjust="spacing" textLength="271" x="576" y="179.9531">AtribuirRotacaoY(radians:double) : void</text><ellipse cx="567" cy="192.6504" fill="#84BE84" rx="3" ry="3" style="stroke:#038048;stroke-width:1.0;"/><text fill="#000000" font-family="sans-serif" font-size="14" lengthAdjust="spacing" textLength="270" x="576" y="196.4414">AtribuirRotacaoZ(radians:double) : void</text><ellipse cx="567" cy="209.1387" fill="#84BE84" rx="3" ry="3" style="stroke:#038048;stroke-width:1.0;"/><text fill="#000000" font-family="sans-serif" font-size="14" lengthAdjust="spacing" textLength="279" x="576" y="212.9297">MultiplicarPonto(pto:Ponto4D) : Ponto4D</text><ellipse cx="567" cy="225.627" fill="#84BE84" rx="3" ry="3" style="stroke:#038048;stroke-width:1.0;"/><text fill="#000000" font-family="sans-serif" font-size="14" lengthAdjust="spacing" textLength="392" x="576" y="229.418">MultiplicarMatriz(t:Transformacao4D) : Transformacao4D</text><ellipse cx="567" cy="242.1152" fill="#84BE84" rx="3" ry="3" style="stroke:#038048;stroke-width:1.0;"/><text fill="#000000" font-family="sans-serif" font-size="14" lengthAdjust="spacing" textLength="234" x="576" y="245.9063">ObterElemento(index:int) : double</text><ellipse cx="567" cy="258.6035" fill="#84BE84" rx="3" ry="3" style="stroke:#038048;stroke-width:1.0;"/><text fill="#000000" font-family="sans-serif" font-size="14" lengthAdjust="spacing" textLength="325" x="576" y="262.3945">AtribuirElemento(index:int, value:double) : void</text><ellipse cx="567" cy="275.0918" fill="#84BE84" rx="3" ry="3" style="stroke:#038048;stroke-width:1.0;"/><text fill="#000000" font-family="sans-serif" font-size="14" lengthAdjust="spacing" textLength="162" x="576" y="278.8828">ObterDados() : double[]</text><ellipse cx="567" cy="291.5801" fill="#84BE84" rx="3" ry="3" style="stroke:#038048;stroke-width:1.0;"/><text fill="#000000" font-family="sans-serif" font-size="14" lengthAdjust="spacing" textLength="239" x="576" y="295.3711">AtribuirDados(data:double[]) : void</text><ellipse cx="567" cy="308.0684" fill="#84BE84" rx="3" ry="3" style="stroke:#038048;stroke-width:1.0;"/><text fill="#000000" font-family="sans-serif" font-size="14" lengthAdjust="spacing" textLength="196" x="576" y="311.8594">«override» ToString() : string</text></g><!--MD5=[ea10f8dc465baf5e542f54928f2443c8]
class BBox--><g id="elem_BBox"><rect codeLine="1" fill="#F1F1F1" height="245.8594" id="BBox" rx="2.5" ry="2.5" style="stroke:#181818;stroke-width:0.5;" width="505" x="2069.5" y="39.97"/><ellipse cx="2300.75" cy="55.97" fill="#ADD1B2" rx="11" ry="11" style="stroke:#181818;stroke-width:1.0;"/><path d="M2303.2231,62.1131 Q2302.6421,62.4119 2302.0029,62.5613 Q2301.3638,62.7107 2300.6582,62.7107 Q2298.1514,62.7107 2296.8315,61.0589 Q2295.5117,59.407 2295.5117,56.2859 Q2295.5117,53.1565 2296.8315,51.5047 Q2298.1514,49.8528 2300.6582,49.8528 Q2301.3638,49.8528 2302.0112,50.0022 Q2302.6587,50.1516 2303.2231,50.4505 L2303.2231,53.1731 Q2302.5923,52.5921 2301.9988,52.3223 Q2301.4053,52.0525 2300.7744,52.0525 Q2299.4297,52.0525 2298.7449,53.1192 Q2298.0601,54.1858 2298.0601,56.2859 Q2298.0601,58.3777 2298.7449,59.4444 Q2299.4297,60.511 2300.7744,60.511 Q2301.4053,60.511 2301.9988,60.2412 Q2302.5923,59.9715 2303.2231,59.3904 Z " fill="#000000"/><text fill="#000000" font-family="sans-serif" font-size="14" lengthAdjust="spacing" textLength="34" x="2321.25" y="61.261">BBox</text><line style="stroke:#181818;stroke-width:0.5;" x1="2070.5" x2="2573.5" y1="71.97" y2="71.97"/><ellipse cx="2080.5" cy="85.7141" fill="none" rx="3" ry="3" style="stroke:#038048;stroke-width:1.0;"/><text fill="#000000" font-family="sans-serif" font-size="14" lengthAdjust="spacing" textLength="190" x="2089.5" y="89.5052">obterMenorX : double «get»</text><ellipse cx="2080.5" cy="102.2024" fill="none" rx="3" ry="3" style="stroke:#038048;stroke-width:1.0;"/><text fill="#000000" font-family="sans-serif" font-size="14" lengthAdjust="spacing" textLength="190" x="2089.5" y="105.9934">obterMenorY : double «get»</text><ellipse cx="2080.5" cy="118.6907" fill="none" rx="3" ry="3" style="stroke:#038048;stroke-width:1.0;"/><text fill="#000000" font-family="sans-serif" font-size="14" lengthAdjust="spacing" textLength="189" x="2089.5" y="122.4817">obterMenorZ : double «get»</text><ellipse cx="2080.5" cy="135.179" fill="none" rx="3" ry="3" style="stroke:#038048;stroke-width:1.0;"/><text fill="#000000" font-family="sans-serif" font-size="14" lengthAdjust="spacing" textLength="185" x="2089.5" y="138.97">obterMaiorX : double «get»</text><ellipse cx="2080.5" cy="151.6673" fill="none" rx="3" ry="3" style="stroke:#038048;stroke-width:1.0;"/><text fill="#000000" font-family="sans-serif" font-size="14" lengthAdjust="spacing" textLength="185" x="2089.5" y="155.4583">obterMaiorY : double «get»</text><ellipse cx="2080.5" cy="168.1555" fill="none" rx="3" ry="3" style="stroke:#038048;stroke-width:1.0;"/><text fill="#000000" font-family="sans-serif" font-size="14" lengthAdjust="spacing" textLength="184" x="2089.5" y="171.9466">obterMaiorZ : double «get»</text><line style="stroke:#181818;stroke-width:0.5;" x1="2070.5" x2="2573.5" y1="178.8997" y2="178.8997"/><ellipse cx="2080.5" cy="192.6438" fill="#84BE84" rx="3" ry="3" style="stroke:#038048;stroke-width:1.0;"/><text fill="#000000" font-family="sans-serif" font-size="14" lengthAdjust="spacing" textLength="44" x="2089.5" y="196.4348">BBox()</text><ellipse cx="2080.5" cy="209.1321" fill="#84BE84" rx="3" ry="3" style="stroke:#038048;stroke-width:1.0;"/><text fill="#000000" font-family="sans-serif" font-size="14" lengthAdjust="spacing" textLength="479" x="2089.5" y="212.9231">Atualizar(matriz:Transformacao4D, pontosLista:List&lt;Ponto4D&gt;) : void</text><ellipse cx="2080.5" cy="225.6204" fill="#84BE84" rx="3" ry="3" style="stroke:#038048;stroke-width:1.0;"/><text fill="#000000" font-family="sans-serif" font-size="14" lengthAdjust="spacing" textLength="164" x="2089.5" y="229.4114">ProcessarCentro() : void</text><ellipse cx="2080.5" cy="242.1087" fill="#84BE84" rx="3" ry="3" style="stroke:#038048;stroke-width:1.0;"/><text fill="#000000" font-family="sans-serif" font-size="14" lengthAdjust="spacing" textLength="186" x="2089.5" y="245.8997">Dentro(pto:Ponto4D) : bool</text><ellipse cx="2080.5" cy="258.597" fill="#84BE84" rx="3" ry="3" style="stroke:#038048;stroke-width:1.0;"/><text fill="#000000" font-family="sans-serif" font-size="14" lengthAdjust="spacing" textLength="325" x="2089.5" y="262.388">Desenhar(matrizGrafo:Transformacao4D) : void</text><ellipse cx="2080.5" cy="275.0852" fill="#84BE84" rx="3" ry="3" style="stroke:#038048;stroke-width:1.0;"/><text fill="#000000" font-family="sans-serif" font-size="14" lengthAdjust="spacing" textLength="196" x="2089.5" y="278.8762">«override» ToString() : string</text></g><!--MD5=[ef5ff341dffd6737742a54781c8b5648]
class Ponto4D--><g id="elem_Ponto4D"><rect codeLine="1" fill="#F1F1F1" height="163.418" id="Ponto4D" rx="2.5" ry="2.5" style="stroke:#181818;stroke-width:0.5;" width="362" x="2141" y="398.81"/><ellipse cx="2288.25" cy="414.81" fill="#ADD1B2" rx="11" ry="11" style="stroke:#181818;stroke-width:1.0;"/><path d="M2290.7231,420.9531 Q2290.1421,421.2519 2289.5029,421.4013 Q2288.8638,421.5507 2288.1582,421.5507 Q2285.6514,421.5507 2284.3315,419.8989 Q2283.0117,418.247 2283.0117,415.1259 Q2283.0117,411.9965 2284.3315,410.3447 Q2285.6514,408.6928 2288.1582,408.6928 Q2288.8638,408.6928 2289.5112,408.8422 Q2290.1587,408.9916 2290.7231,409.2905 L2290.7231,412.0131 Q2290.0923,411.4321 2289.4988,411.1623 Q2288.9053,410.8925 2288.2744,410.8925 Q2286.9297,410.8925 2286.2449,411.9592 Q2285.5601,413.0258 2285.5601,415.1259 Q2285.5601,417.2177 2286.2449,418.2844 Q2286.9297,419.351 2288.2744,419.351 Q2288.9053,419.351 2289.4988,419.0812 Q2290.0923,418.8115 2290.7231,418.2304 Z " fill="#000000"/><text fill="#000000" font-family="sans-serif" font-size="14" lengthAdjust="spacing" textLength="59" x="2308.75" y="420.101">Ponto4D</text><line style="stroke:#181818;stroke-width:0.5;" x1="2142" x2="2502" y1="430.81" y2="430.81"/><ellipse cx="2152" cy="444.5541" fill="none" rx="3" ry="3" style="stroke:#038048;stroke-width:1.0;"/><text fill="#000000" font-family="sans-serif" font-size="14" lengthAdjust="spacing" textLength="147" x="2161" y="448.3452">X : double «get» «set»</text><ellipse cx="2152" cy="461.0424" fill="none" rx="3" ry="3" style="stroke:#038048;stroke-width:1.0;"/><text fill="#000000" font-family="sans-serif" font-size="14" lengthAdjust="spacing" textLength="147" x="2161" y="464.8334">Y : double «get» «set»</text><ellipse cx="2152" cy="477.5307" fill="none" rx="3" ry="3" style="stroke:#038048;stroke-width:1.0;"/><text fill="#000000" font-family="sans-serif" font-size="14" lengthAdjust="spacing" textLength="146" x="2161" y="481.3217">Z : double «get» «set»</text><ellipse cx="2152" cy="494.019" fill="none" rx="3" ry="3" style="stroke:#038048;stroke-width:1.0;"/><text fill="#000000" font-family="sans-serif" font-size="14" lengthAdjust="spacing" textLength="112" x="2161" y="497.81">W : double «get»</text><line style="stroke:#181818;stroke-width:0.5;" x1="2142" x2="2502" y1="504.7631" y2="504.7631"/><ellipse cx="2152" cy="518.5073" fill="#84BE84" rx="3" ry="3" style="stroke:#038048;stroke-width:1.0;"/><text fill="#000000" font-family="sans-serif" font-size="14" lengthAdjust="spacing" textLength="336" x="2161" y="522.2983">Ponto4D(x:double, y:double, z:double, w:double)</text><ellipse cx="2152" cy="534.9955" fill="#84BE84" rx="3" ry="3" style="stroke:#038048;stroke-width:1.0;"/><text fill="#000000" font-family="sans-serif" font-size="14" lengthAdjust="spacing" textLength="155" x="2161" y="538.7866">Ponto4D(pto:Ponto4D)</text><ellipse cx="2152" cy="551.4838" fill="#84BE84" rx="3" ry="3" style="stroke:#038048;stroke-width:1.0;"/><text fill="#000000" font-family="sans-serif" font-size="14" lengthAdjust="spacing" textLength="196" x="2161" y="555.2748">«override» ToString() : string</text></g><!--MD5=[57370106b09f55ffa37deb7835ffe78b]
class Matematica--><g id="elem_Matematica"><rect codeLine="1" fill="#F1F1F1" height="179.9063" id="Matematica" rx="2.5" ry="2.5" style="stroke:#181818;stroke-width:0.5;" width="499" x="1175.5" y="72.95"/><ellipse cx="1381.75" cy="88.95" fill="#A9DCDF" rx="11" ry="11" style="stroke:#181818;stroke-width:1.0;"/><path d="M1381.6133,84.2981 L1380.4595,89.3699 L1382.7754,89.3699 Z M1380.1191,82.0569 L1383.1157,82.0569 L1386.4609,94.45 L1384.0122,94.45 L1383.2485,91.387 L1379.9697,91.387 L1379.2227,94.45 L1376.7739,94.45 Z " fill="#000000"/><text fill="#000000" font-family="sans-serif" font-size="14" font-style="italic" lengthAdjust="spacing" textLength="78" x="1402.25" y="94.241">Matematica</text><line style="stroke:#181818;stroke-width:0.5;" x1="1176.5" x2="1673.5" y1="104.95" y2="104.95"/><line style="stroke:#181818;stroke-width:0.5;" x1="1176.5" x2="1673.5" y1="112.95" y2="112.95"/><ellipse cx="1186.5" cy="126.6941" fill="#84BE84" rx="3" ry="3" style="stroke:#038048;stroke-width:1.0;"/><text fill="#000000" font-family="sans-serif" font-size="14" lengthAdjust="spacing" text-decoration="underline" textLength="384" x="1195.5" y="130.4852">GerarPtosCirculo(angulo:double, raio:double) : Ponto4D</text><ellipse cx="1186.5" cy="143.1824" fill="#84BE84" rx="3" ry="3" style="stroke:#038048;stroke-width:1.0;"/><text fill="#000000" font-family="sans-serif" font-size="14" lengthAdjust="spacing" text-decoration="underline" textLength="329" x="1195.5" y="146.9734">GerarPtosCirculoSimetrico(raio:double) : double</text><ellipse cx="1186.5" cy="159.6707" fill="#84BE84" rx="3" ry="3" style="stroke:#038048;stroke-width:1.0;"/><text fill="#000000" font-family="sans-serif" font-size="14" lengthAdjust="spacing" text-decoration="underline" textLength="267" x="1195.5" y="163.4617">Dentro(bBox:BBox, pto:Ponto4D) : bool</text><ellipse cx="1186.5" cy="176.159" fill="#84BE84" rx="3" ry="3" style="stroke:#038048;stroke-width:1.0;"/><text fill="#000000" font-family="sans-serif" font-size="14" lengthAdjust="spacing" text-decoration="underline" textLength="398" x="1195.5" y="179.95">distanciaQuadrado(ptoA:Ponto4D, ptoB:Ponto4D) : double</text><ellipse cx="1186.5" cy="192.6473" fill="#84BE84" rx="3" ry="3" style="stroke:#038048;stroke-width:1.0;"/><text fill="#000000" font-family="sans-serif" font-size="14" lengthAdjust="spacing" text-decoration="underline" textLength="329" x="1195.5" y="196.4383">distancia(ptoA:Ponto4D, ptoB:Ponto4D) : double</text><ellipse cx="1186.5" cy="209.1355" fill="#84BE84" rx="3" ry="3" style="stroke:#038048;stroke-width:1.0;"/><text fill="#000000" font-family="sans-serif" font-size="14" lengthAdjust="spacing" text-decoration="underline" textLength="423" x="1195.5" y="212.9266">ScanLineInterseccao(yi:double, y1:double, y2:double) : double</text><ellipse cx="1186.5" cy="225.6238" fill="#84BE84" rx="3" ry="3" style="stroke:#038048;stroke-width:1.0;"/><text fill="#000000" font-family="sans-serif" font-size="14" lengthAdjust="spacing" text-decoration="underline" textLength="410" x="1195.5" y="229.4148">ScanLineCalculaXi(x1:double, x2:double, ti:double) : double</text><ellipse cx="1186.5" cy="242.1121" fill="#84BE84" rx="3" ry="3" style="stroke:#038048;stroke-width:1.0;"/><text fill="#000000" font-family="sans-serif" font-size="14" lengthAdjust="spacing" text-decoration="underline" textLength="473" x="1195.5" y="245.9031">ScanLine(ptoClique:Ponto4D, ptoIni:Ponto4D, ptoFim:Ponto4D) : bool</text></g><!--MD5=[03b04ed89c1f7ac76f6e629bfb39a406]
class Shader--><g id="elem_Shader"><rect codeLine="1" fill="#F1F1F1" height="179.9063" id="Shader" rx="2.5" ry="2.5" style="stroke:#181818;stroke-width:0.5;" width="328" x="100" y="390.36"/><ellipse cx="235.75" cy="406.36" fill="#ADD1B2" rx="11" ry="11" style="stroke:#181818;stroke-width:1.0;"/><path d="M238.2231,412.5031 Q237.6421,412.8019 237.0029,412.9513 Q236.3638,413.1007 235.6582,413.1007 Q233.1514,413.1007 231.8315,411.4489 Q230.5117,409.797 230.5117,406.6759 Q230.5117,403.5465 231.8315,401.8947 Q233.1514,400.2428 235.6582,400.2428 Q236.3638,400.2428 237.0112,400.3922 Q237.6587,400.5416 238.2231,400.8405 L238.2231,403.5631 Q237.5923,402.9821 236.9988,402.7123 Q236.4053,402.4425 235.7744,402.4425 Q234.4297,402.4425 233.7449,403.5092 Q233.0601,404.5758 233.0601,406.6759 Q233.0601,408.7677 233.7449,409.8344 Q234.4297,410.901 235.7744,410.901 Q236.4053,410.901 236.9988,410.6312 Q237.5923,410.3615 238.2231,409.7804 Z " fill="#000000"/><text fill="#000000" font-family="sans-serif" font-size="14" lengthAdjust="spacing" textLength="48" x="256.25" y="411.651">Shader</text><line style="stroke:#181818;stroke-width:0.5;" x1="101" x2="427" y1="422.36" y2="422.36"/><ellipse cx="111" cy="436.1041" fill="none" rx="3" ry="3" style="stroke:#038048;stroke-width:1.0;"/><text fill="#000000" font-family="sans-serif" font-size="14" lengthAdjust="spacing" textLength="156" x="120" y="439.8952">«readonly» Handle : int</text><line style="stroke:#181818;stroke-width:0.5;" x1="101" x2="427" y1="446.8483" y2="446.8483"/><ellipse cx="111" cy="460.5924" fill="#84BE84" rx="3" ry="3" style="stroke:#038048;stroke-width:1.0;"/><text fill="#000000" font-family="sans-serif" font-size="14" lengthAdjust="spacing" textLength="268" x="120" y="464.3834">Shader(vertPath:string, fragPath:string)</text><ellipse cx="111" cy="477.0807" fill="#84BE84" rx="3" ry="3" style="stroke:#038048;stroke-width:1.0;"/><text fill="#000000" font-family="sans-serif" font-size="14" lengthAdjust="spacing" textLength="76" x="120" y="480.8717">Use() : void</text><ellipse cx="111" cy="493.569" fill="#84BE84" rx="3" ry="3" style="stroke:#038048;stroke-width:1.0;"/><text fill="#000000" font-family="sans-serif" font-size="14" lengthAdjust="spacing" textLength="280" x="120" y="497.36">GetAttribLocation(attribName:string) : int</text><ellipse cx="111" cy="510.0573" fill="#84BE84" rx="3" ry="3" style="stroke:#038048;stroke-width:1.0;"/><text fill="#000000" font-family="sans-serif" font-size="14" lengthAdjust="spacing" textLength="232" x="120" y="513.8483">SetInt(name:string, data:int) : void</text><ellipse cx="111" cy="526.5455" fill="#84BE84" rx="3" ry="3" style="stroke:#038048;stroke-width:1.0;"/><text fill="#000000" font-family="sans-serif" font-size="14" lengthAdjust="spacing" textLength="261" x="120" y="530.3366">SetFloat(name:string, data:float) : void</text><ellipse cx="111" cy="543.0338" fill="#84BE84" rx="3" ry="3" style="stroke:#038048;stroke-width:1.0;"/><text fill="#000000" font-family="sans-serif" font-size="14" lengthAdjust="spacing" textLength="302" x="120" y="546.8248">SetMatrix4(name:string, data:Matrix4) : void</text><ellipse cx="111" cy="559.5221" fill="#84BE84" rx="3" ry="3" style="stroke:#038048;stroke-width:1.0;"/><text fill="#000000" font-family="sans-serif" font-size="14" lengthAdjust="spacing" textLength="302" x="120" y="563.3131">SetVector3(name:string, data:Vector3) : void</text></g><!--MD5=[0d6a1e50063dbdab83456c09ed84e66c]
class Texture--><g id="elem_Texture"><rect codeLine="1" fill="#F1F1F1" height="113.9531" id="Texture" rx="2.5" ry="2.5" style="stroke:#181818;stroke-width:0.5;" width="270" x="463" y="423.33"/><ellipse cx="566.75" cy="439.33" fill="#ADD1B2" rx="11" ry="11" style="stroke:#181818;stroke-width:1.0;"/><path d="M569.2231,445.4731 Q568.6421,445.7719 568.0029,445.9213 Q567.3638,446.0707 566.6582,446.0707 Q564.1514,446.0707 562.8315,444.4189 Q561.5117,442.767 561.5117,439.6459 Q561.5117,436.5165 562.8315,434.8647 Q564.1514,433.2128 566.6582,433.2128 Q567.3638,433.2128 568.0112,433.3622 Q568.6587,433.5116 569.2231,433.8105 L569.2231,436.5331 Q568.5923,435.9521 567.9988,435.6823 Q567.4053,435.4125 566.7744,435.4125 Q565.4297,435.4125 564.7449,436.4792 Q564.0601,437.5458 564.0601,439.6459 Q564.0601,441.7377 564.7449,442.8044 Q565.4297,443.871 566.7744,443.871 Q567.4053,443.871 567.9988,443.6012 Q568.5923,443.3315 569.2231,442.7504 Z " fill="#000000"/><text fill="#000000" font-family="sans-serif" font-size="14" lengthAdjust="spacing" textLength="54" x="587.25" y="444.621">Texture</text><line style="stroke:#181818;stroke-width:0.5;" x1="464" x2="732" y1="455.33" y2="455.33"/><ellipse cx="474" cy="469.0741" fill="none" rx="3" ry="3" style="stroke:#038048;stroke-width:1.0;"/><text fill="#000000" font-family="sans-serif" font-size="14" lengthAdjust="spacing" textLength="156" x="483" y="472.8652">«readonly» Handle : int</text><line style="stroke:#181818;stroke-width:0.5;" x1="464" x2="732" y1="479.8183" y2="479.8183"/><ellipse cx="474" cy="493.5624" fill="#84BE84" rx="3" ry="3" style="stroke:#038048;stroke-width:1.0;"/><text fill="#000000" font-family="sans-serif" font-size="14" lengthAdjust="spacing" text-decoration="underline" textLength="244" x="483" y="497.3534">LoadFromFile(path:string) : Texture</text><ellipse cx="474" cy="510.0507" fill="#84BE84" rx="3" ry="3" style="stroke:#038048;stroke-width:1.0;"/><text fill="#000000" font-family="sans-serif" font-size="14" lengthAdjust="spacing" textLength="147" x="483" y="513.8417">Texture(glHandle:int)</text><ellipse cx="474" cy="526.539" fill="#84BE84" rx="3" ry="3" style="stroke:#038048;stroke-width:1.0;"/><text fill="#000000" font-family="sans-serif" font-size="14" lengthAdjust="spacing" textLength="189" x="483" y="530.33">Use(unit:TextureUnit) : void</text></g><!--MD5=[6589bef2f922ef5832c1f0626fa4a63a]
link Camera to Vector3--><g id="link_Camera_Vector3"><path codeLine="10" d="M1837.45,244.72 C1828.94,312.42 1832.64,405.15 1848.55,451.11 " fill="none" id="Camera-to-Vector3" style="stroke:#181818;stroke-width:1.0;"/><polygon fill="#181818" points="1850.55,455.48,1851.1352,445.6485,1848.7944,450.7984,1843.6446,448.4575,1850.55,455.48" style="stroke:#181818;stroke-width:1.0;"/><text fill="#000000" font-family="sans-serif" font-size="13" lengthAdjust="spacing" textLength="51" x="1786.9322" y="445.6702">Position</text></g><!--MD5=[6589bef2f922ef5832c1f0626fa4a63a]
link Camera to Vector3--><g id="link_Camera_Vector3"><path codeLine="11" d="M1860.71,244.72 C1857.93,312.14 1859.12,404.4 1864.27,450.55 " fill="none" id="Camera-to-Vector3-1" style="stroke:#181818;stroke-width:1.0;"/><polygon fill="#181818" points="1864.99,455.48,1867.8796,446.0646,1864.3892,450.5162,1859.9375,447.0259,1864.99,455.48" style="stroke:#181818;stroke-width:1.0;"/><text fill="#000000" font-family="sans-serif" font-size="13" lengthAdjust="spacing" textLength="33" x="1797.3128" y="445.1906">Front</text></g><!--MD5=[6589bef2f922ef5832c1f0626fa4a63a]
link Camera to Vector3--><g id="link_Camera_Vector3"><path codeLine="12" d="M1883.96,244.72 C1886.89,312.14 1885.64,404.4 1880.19,450.55 " fill="none" id="Camera-to-Vector3-2" style="stroke:#181818;stroke-width:1.0;"/><polygon fill="#181818" points="1879.43,455.48,1884.5304,447.0547,1880.059,450.5197,1876.5939,446.0483,1879.43,455.48" style="stroke:#181818;stroke-width:1.0;"/><text fill="#000000" font-family="sans-serif" font-size="13" lengthAdjust="spacing" textLength="17" x="1862.1424" y="445.6702">Up</text></g><!--MD5=[6589bef2f922ef5832c1f0626fa4a63a]
link Camera to Vector3--><g id="link_Camera_Vector3"><path codeLine="13" d="M1907.21,244.72 C1915.89,312.42 1912.12,405.15 1895.91,451.11 " fill="none" id="Camera-to-Vector3-3" style="stroke:#181818;stroke-width:1.0;"/><polygon fill="#181818" points="1893.87,455.48,1900.8012,448.483,1895.6428,450.8048,1893.321,445.6465,1893.87,455.48" style="stroke:#181818;stroke-width:1.0;"/><text fill="#000000" font-family="sans-serif" font-size="13" lengthAdjust="spacing" textLength="33" x="1904.1819" y="445.6702">Right</text></g><!--MD5=[21d10fafb72c8ad2b9cea5ee0b564837]
link BBox to Ponto4D--><g id="link_BBox_Ponto4D"><path codeLine="15" d="M2322,286.3 C2322,321.98 2322,360.21 2322,393.15 " fill="none" id="BBox-to-Ponto4D" style="stroke:#181818;stroke-width:1.0;"/><polygon fill="#181818" points="2322,397.82,2326,388.82,2322,392.82,2318,388.82,2322,397.82" style="stroke:#181818;stroke-width:1.0;"/><text fill="#000000" font-family="sans-serif" font-size="13" lengthAdjust="spacing" textLength="75" x="2243.543" y="388.1796">obterCentro</text></g><!--MD5=[6f0216d24dd34ce55c9e827446eea646]
@startuml
!include ./CameraPerspective.puml
!include ./Utilitario.puml
!include ./Transformacao4D.puml
!include ./BBox.puml
!include ./Ponto4D.puml
!include ./Matematica.puml
!include ./Shaders/Shader.puml
!include ./Shaders/Texture.puml
!include ./obj/Debug/net7.0/.NETCoreApp,Version=v7.0.AssemblyAttributes.puml
!include ./obj/Debug/net7.0/CG_Biblioteca.AssemblyInfo.puml
@enduml

@startuml
class Camera {
    + Camera(position:Vector3, aspectRatio:float)
    + AspectRatio : float <<set>>
    + Pitch : float <<get>> <<set>>
    + Yaw : float <<get>> <<set>>
    + Fov : float <<get>> <<set>>
    + GetViewMatrix() : Matrix4
    + GetProjectionMatrix() : Matrix4
}
Camera - -> "Position" Vector3
Camera - -> "Front" Vector3
Camera - -> "Up" Vector3
Camera - -> "Right" Vector3
abstract class Utilitario {
    + {static} CharProximo(atual:char) : char
    + {static} TeclaUpperConsole(msg:String, Control:bool, Shift:bool) : char
    + {static} NDC_TelaSRU(largura:int, altura:int, mousePosition:Ponto4D) : Ponto4D
    + {static} AjudaTeclado() : void
}
class Transformacao4D {
    {static} + <<readonly>> DEG_TO_RAD : double = 0.017453292519943295769236907684886
    + Transformacao4D()
    + ObterDadosOpenTK() : Matrix4
    + AtribuirIdentidade() : void
    + AtribuirTranslacao(tx:double, ty:double, tz:double) : void
    + AtribuirEscala(sX:double, sY:double, sZ:double) : void
    + AtribuirRotacaoX(radians:double) : void
    + AtribuirRotacaoY(radians:double) : void
    + AtribuirRotacaoZ(radians:double) : void
    + MultiplicarPonto(pto:Ponto4D) : Ponto4D
    + MultiplicarMatriz(t:Transformacao4D) : Transformacao4D
    + ObterElemento(index:int) : double
    + AtribuirElemento(index:int, value:double) : void
    + ObterDados() : double[]
    + AtribuirDados(data:double[]) : void
    + <<override>> ToString() : string
}
class BBox {
    + BBox()
    + Atualizar(matriz:Transformacao4D, pontosLista:List<Ponto4D>) : void
    + ProcessarCentro() : void
    + Dentro(pto:Ponto4D) : bool
    + obterMenorX : double <<get>>
    + obterMenorY : double <<get>>
    + obterMenorZ : double <<get>>
    + obterMaiorX : double <<get>>
    + obterMaiorY : double <<get>>
    + obterMaiorZ : double <<get>>
    + Desenhar(matrizGrafo:Transformacao4D) : void
    + <<override>> ToString() : string
}
BBox - -> "obterCentro" Ponto4D
class Ponto4D {
    + Ponto4D(x:double, y:double, z:double, w:double)
    + Ponto4D(pto:Ponto4D)
    + X : double <<get>> <<set>>
    + Y : double <<get>> <<set>>
    + Z : double <<get>> <<set>>
    + W : double <<get>>
    + <<override>> ToString() : string
}
abstract class Matematica {
    + {static} GerarPtosCirculo(angulo:double, raio:double) : Ponto4D
    + {static} GerarPtosCirculoSimetrico(raio:double) : double
    + {static} Dentro(bBox:BBox, pto:Ponto4D) : bool
    + {static} distanciaQuadrado(ptoA:Ponto4D, ptoB:Ponto4D) : double
    + {static} distancia(ptoA:Ponto4D, ptoB:Ponto4D) : double
    + {static} ScanLineInterseccao(yi:double, y1:double, y2:double) : double
    + {static} ScanLineCalculaXi(x1:double, x2:double, ti:double) : double
    + {static} ScanLine(ptoClique:Ponto4D, ptoIni:Ponto4D, ptoFim:Ponto4D) : bool
}
class Shader {
    + <<readonly>> Handle : int
    + Shader(vertPath:string, fragPath:string)
    + Use() : void
    + GetAttribLocation(attribName:string) : int
    + SetInt(name:string, data:int) : void
    + SetFloat(name:string, data:float) : void
    + SetMatrix4(name:string, data:Matrix4) : void
    + SetVector3(name:string, data:Vector3) : void
}
class Texture {
    + <<readonly>> Handle : int
    + {static} LoadFromFile(path:string) : Texture
    + Texture(glHandle:int)
    + Use(unit:TextureUnit) : void
}
@enduml

PlantUML version 1.2022.7(Mon Aug 22 14:01:30 BRT 2022)
(GPL source distribution)
Java Runtime: OpenJDK Runtime Environment
JVM: OpenJDK 64-Bit Server VM
Default Encoding: UTF-8
Language: en
Country: BR
--></g></svg>