<?xml version="1.0" encoding="UTF-8" standalone="no"?><svg xmlns="http://www.w3.org/2000/svg" xmlns:xlink="http://www.w3.org/1999/xlink" contentStyleType="text/css" height="615px" preserveAspectRatio="none" style="width:3152px;height:615px;background:#FFFFFF;" version="1.1" viewBox="0 0 3152 615" width="3152px" zoomAndPan="magnify"><defs/><g><!--MD5=[14270d418d81d90ef0399f0e3d0d5129]
class Poligono--><g id="elem_Poligono"><rect codeLine="1" fill="#F1F1F1" height="80.9766" id="Poligono" rx="2.5" ry="2.5" style="stroke:#181818;stroke-width:0.5;" width="506" x="7" y="510.72"/><ellipse cx="225.25" cy="526.72" fill="#ADD1B2" rx="11" ry="11" style="stroke:#181818;stroke-width:1.0;"/><path d="M227.7231,532.8631 Q227.1421,533.1619 226.5029,533.3113 Q225.8638,533.4607 225.1582,533.4607 Q222.6514,533.4607 221.3315,531.8089 Q220.0117,530.157 220.0117,527.0359 Q220.0117,523.9065 221.3315,522.2547 Q222.6514,520.6028 225.1582,520.6028 Q225.8638,520.6028 226.5112,520.7522 Q227.1587,520.9016 227.7231,521.2005 L227.7231,523.9231 Q227.0923,523.3421 226.4988,523.0723 Q225.9053,522.8025 225.2744,522.8025 Q223.9297,522.8025 223.2449,523.8692 Q222.5601,524.9358 222.5601,527.0359 Q222.5601,529.1277 223.2449,530.1944 Q223.9297,531.261 225.2744,531.261 Q225.9053,531.261 226.4988,530.9912 Q227.0923,530.7215 227.7231,530.1404 Z " fill="#000000"/><text fill="#000000" font-family="sans-serif" font-size="14" lengthAdjust="spacing" textLength="61" x="245.75" y="532.011">Poligono</text><line style="stroke:#181818;stroke-width:0.5;" x1="8" x2="512" y1="542.72" y2="542.72"/><line style="stroke:#181818;stroke-width:0.5;" x1="8" x2="512" y1="550.72" y2="550.72"/><ellipse cx="18" cy="564.4641" fill="#84BE84" rx="3" ry="3" style="stroke:#038048;stroke-width:1.0;"/><text fill="#000000" font-family="sans-serif" font-size="14" lengthAdjust="spacing" textLength="480" x="27" y="568.2552">Poligono(paiRef:Objeto, _rotulo:char, pontosPoligono:List&lt;Ponto4D&gt;)</text><ellipse cx="18" cy="580.9524" fill="#84BE84" rx="3" ry="3" style="stroke:#038048;stroke-width:1.0;"/><text fill="#000000" font-family="sans-serif" font-size="14" lengthAdjust="spacing" textLength="196" x="27" y="584.7434">«override» ToString() : string</text></g><!--MD5=[3051a6a8f877a755a60c7cfd1e6f410a]
class Objeto--><g id="elem_Objeto"><rect codeLine="1" fill="#F1F1F1" height="427.2305" id="Objeto" rx="2.5" ry="2.5" style="stroke:#181818;stroke-width:0.5;" width="442" x="1107" y="7"/><ellipse cx="1300.75" cy="23" fill="#ADD1B2" rx="11" ry="11" style="stroke:#181818;stroke-width:1.0;"/><path d="M1303.2231,29.1431 Q1302.6421,29.4419 1302.0029,29.5913 Q1301.3638,29.7407 1300.6582,29.7407 Q1298.1514,29.7407 1296.8315,28.0889 Q1295.5117,26.437 1295.5117,23.3159 Q1295.5117,20.1865 1296.8315,18.5347 Q1298.1514,16.8828 1300.6582,16.8828 Q1301.3638,16.8828 1302.0112,17.0322 Q1302.6587,17.1816 1303.2231,17.4805 L1303.2231,20.2031 Q1302.5923,19.6221 1301.9988,19.3523 Q1301.4053,19.0825 1300.7744,19.0825 Q1299.4297,19.0825 1298.7449,20.1492 Q1298.0601,21.2158 1298.0601,23.3159 Q1298.0601,25.4077 1298.7449,26.4744 Q1299.4297,27.541 1300.7744,27.541 Q1301.4053,27.541 1301.9988,27.2712 Q1302.5923,27.0015 1303.2231,26.4204 Z " fill="#000000"/><text fill="#000000" font-family="sans-serif" font-size="14" lengthAdjust="spacing" textLength="46" x="1321.25" y="28.291">Objeto</text><line style="stroke:#181818;stroke-width:0.5;" x1="1108" x2="1548" y1="39" y2="39"/><ellipse cx="1118" cy="52.7441" fill="none" rx="3" ry="3" style="stroke:#038048;stroke-width:1.0;"/><text fill="#000000" font-family="sans-serif" font-size="14" lengthAdjust="spacing" textLength="127" x="1127" y="56.5352">Rotulo : char «get»</text><ellipse cx="1118" cy="69.2324" fill="none" rx="3" ry="3" style="stroke:#038048;stroke-width:1.0;"/><text fill="#000000" font-family="sans-serif" font-size="14" lengthAdjust="spacing" textLength="245" x="1127" y="73.0234">PrimitivaTamanho : float «get» «set»</text><line style="stroke:#181818;stroke-width:0.5;" x1="1108" x2="1548" y1="79.9766" y2="79.9766"/><ellipse cx="1118" cy="93.7207" fill="#84BE84" rx="3" ry="3" style="stroke:#038048;stroke-width:1.0;"/><text fill="#000000" font-family="sans-serif" font-size="14" lengthAdjust="spacing" textLength="91" x="1127" y="97.5117">Bbox() : BBox</text><ellipse cx="1118" cy="110.209" fill="#84BE84" rx="3" ry="3" style="stroke:#038048;stroke-width:1.0;"/><text fill="#000000" font-family="sans-serif" font-size="14" lengthAdjust="spacing" textLength="239" x="1127" y="114">TrocaEixoRotacao(eixo:char) : void</text><ellipse cx="1118" cy="126.6973" fill="#84BE84" rx="3" ry="3" style="stroke:#038048;stroke-width:1.0;"/><text fill="#000000" font-family="sans-serif" font-size="14" lengthAdjust="spacing" textLength="376" x="1127" y="130.4883">Objeto(paiRef:Objeto, _rotulo:char, objetoFilho:Objeto)</text><ellipse cx="1118" cy="143.1855" fill="#84BE84" rx="3" ry="3" style="stroke:#038048;stroke-width:1.0;"/><text fill="#000000" font-family="sans-serif" font-size="14" lengthAdjust="spacing" textLength="159" x="1127" y="146.9766">ObjetoAtualizar() : void</text><ellipse cx="1118" cy="159.6738" fill="#84BE84" rx="3" ry="3" style="stroke:#038048;stroke-width:1.0;"/><text fill="#000000" font-family="sans-serif" font-size="14" lengthAdjust="spacing" textLength="325" x="1127" y="163.4648">Desenhar(matrizGrafo:Transformacao4D) : void</text><ellipse cx="1118" cy="176.1621" fill="#84BE84" rx="3" ry="3" style="stroke:#038048;stroke-width:1.0;"/><text fill="#000000" font-family="sans-serif" font-size="14" lengthAdjust="spacing" textLength="232" x="1127" y="179.9531">FilhoAdicionar(filho:Objeto) : void</text><ellipse cx="1118" cy="192.6504" fill="#84BE84" rx="3" ry="3" style="stroke:#038048;stroke-width:1.0;"/><text fill="#000000" font-family="sans-serif" font-size="14" lengthAdjust="spacing" textLength="176" x="1127" y="196.4414">PontosId(id:int) : Ponto4D</text><ellipse cx="1118" cy="209.1387" fill="#84BE84" rx="3" ry="3" style="stroke:#038048;stroke-width:1.0;"/><text fill="#000000" font-family="sans-serif" font-size="14" lengthAdjust="spacing" textLength="250" x="1127" y="212.9297">PontosAdicionar(pto:Ponto4D) : void</text><ellipse cx="1118" cy="225.627" fill="#84BE84" rx="3" ry="3" style="stroke:#038048;stroke-width:1.0;"/><text fill="#000000" font-family="sans-serif" font-size="14" lengthAdjust="spacing" textLength="314" x="1127" y="229.418">PontosAlterar(pto:Ponto4D, posicao:int) : void</text><ellipse cx="1118" cy="242.1152" fill="#84BE84" rx="3" ry="3" style="stroke:#038048;stroke-width:1.0;"/><text fill="#000000" font-family="sans-serif" font-size="14" lengthAdjust="spacing" textLength="260" x="1127" y="245.9063">GrafocenaBusca(_rotulo:char) : Objeto</text><ellipse cx="1118" cy="258.6035" fill="#84BE84" rx="3" ry="3" style="stroke:#038048;stroke-width:1.0;"/><text fill="#000000" font-family="sans-serif" font-size="14" lengthAdjust="spacing" textLength="365" x="1127" y="262.3945">GrafocenaBuscaProximo(objetoAtual:Objeto) : Objeto</text><ellipse cx="1118" cy="275.0918" fill="#84BE84" rx="3" ry="3" style="stroke:#038048;stroke-width:1.0;"/><text fill="#000000" font-family="sans-serif" font-size="14" lengthAdjust="spacing" textLength="243" x="1127" y="278.8828">GrafocenaImprimir(idt:String) : void</text><ellipse cx="1118" cy="291.5801" fill="#84BE84" rx="3" ry="3" style="stroke:#038048;stroke-width:1.0;"/><text fill="#000000" font-family="sans-serif" font-size="14" lengthAdjust="spacing" textLength="153" x="1127" y="295.3711">MatrizImprimir() : void</text><ellipse cx="1118" cy="308.0684" fill="#84BE84" rx="3" ry="3" style="stroke:#038048;stroke-width:1.0;"/><text fill="#000000" font-family="sans-serif" font-size="14" lengthAdjust="spacing" textLength="220" x="1127" y="311.8594">MatrizAtribuirIdentidade() : void</text><ellipse cx="1118" cy="324.5566" fill="#84BE84" rx="3" ry="3" style="stroke:#038048;stroke-width:1.0;"/><text fill="#000000" font-family="sans-serif" font-size="14" lengthAdjust="spacing" textLength="406" x="1127" y="328.3477">MatrizTranslacaoXYZ(tx:double, ty:double, tz:double) : void</text><ellipse cx="1118" cy="341.0449" fill="#84BE84" rx="3" ry="3" style="stroke:#038048;stroke-width:1.0;"/><text fill="#000000" font-family="sans-serif" font-size="14" lengthAdjust="spacing" textLength="382" x="1127" y="344.8359">MatrizEscalaXYZ(Sx:double, Sy:double, Sz:double) : void</text><ellipse cx="1118" cy="357.5332" fill="#84BE84" rx="3" ry="3" style="stroke:#038048;stroke-width:1.0;"/><text fill="#000000" font-family="sans-serif" font-size="14" lengthAdjust="spacing" textLength="416" x="1127" y="361.3242">MatrizEscalaXYZBBox(Sx:double, Sy:double, Sz:double) : void</text><ellipse cx="1118" cy="374.0215" fill="#84BE84" rx="3" ry="3" style="stroke:#038048;stroke-width:1.0;"/><text fill="#000000" font-family="sans-serif" font-size="14" lengthAdjust="spacing" textLength="279" x="1127" y="377.8125">MatrizRotacaoEixo(angulo:double) : void</text><ellipse cx="1118" cy="390.5098" fill="#84BE84" rx="3" ry="3" style="stroke:#038048;stroke-width:1.0;"/><text fill="#000000" font-family="sans-serif" font-size="14" lengthAdjust="spacing" textLength="249" x="1127" y="394.3008">MatrizRotacao(angulo:double) : void</text><ellipse cx="1118" cy="406.998" fill="#84BE84" rx="3" ry="3" style="stroke:#038048;stroke-width:1.0;"/><text fill="#000000" font-family="sans-serif" font-size="14" lengthAdjust="spacing" textLength="291" x="1127" y="410.7891">MatrizRotacaoZBBox(angulo:double) : void</text><ellipse cx="1118" cy="423.4863" fill="#84BE84" rx="3" ry="3" style="stroke:#038048;stroke-width:1.0;"/><text fill="#000000" font-family="sans-serif" font-size="14" lengthAdjust="spacing" textLength="120" x="1127" y="427.2773">OnUnload() : void</text></g><!--MD5=[919386ce46a6a5a7c71af782f732246a]
class Mundo--><g id="elem_Mundo"><rect codeLine="1" fill="#F1F1F1" height="64.4883" id="Mundo" rx="2.5" ry="2.5" style="stroke:#181818;stroke-width:0.5;" width="696" x="2449" y="518.96"/><ellipse cx="2768.75" cy="534.96" fill="#ADD1B2" rx="11" ry="11" style="stroke:#181818;stroke-width:1.0;"/><path d="M2771.2231,541.1031 Q2770.6421,541.4019 2770.0029,541.5513 Q2769.3638,541.7007 2768.6582,541.7007 Q2766.1514,541.7007 2764.8315,540.0489 Q2763.5117,538.397 2763.5117,535.2759 Q2763.5117,532.1465 2764.8315,530.4947 Q2766.1514,528.8428 2768.6582,528.8428 Q2769.3638,528.8428 2770.0112,528.9922 Q2770.6587,529.1416 2771.2231,529.4405 L2771.2231,532.1631 Q2770.5923,531.5821 2769.9988,531.3123 Q2769.4053,531.0425 2768.7744,531.0425 Q2767.4297,531.0425 2766.7449,532.1092 Q2766.0601,533.1758 2766.0601,535.2759 Q2766.0601,537.3677 2766.7449,538.4344 Q2767.4297,539.501 2768.7744,539.501 Q2769.4053,539.501 2769.9988,539.2312 Q2770.5923,538.9615 2771.2231,538.3804 Z " fill="#000000"/><text fill="#000000" font-family="sans-serif" font-size="14" lengthAdjust="spacing" textLength="48" x="2789.25" y="540.251">Mundo</text><line style="stroke:#181818;stroke-width:0.5;" x1="2450" x2="3144" y1="550.96" y2="550.96"/><line style="stroke:#181818;stroke-width:0.5;" x1="2450" x2="3144" y1="558.96" y2="558.96"/><ellipse cx="2460" cy="572.7041" fill="#84BE84" rx="3" ry="3" style="stroke:#038048;stroke-width:1.0;"/><text fill="#000000" font-family="sans-serif" font-size="14" lengthAdjust="spacing" textLength="670" x="2469" y="576.4952">Mundo(gameWindowSettings:GameWindowSettings, nativeWindowSettings:NativeWindowSettings)</text></g><!--MD5=[d0074d293e9645ff4ed5f25f47c5773b]
class GameWindow--><g id="elem_GameWindow"><rect fill="#F1F1F1" height="48" id="GameWindow" rx="2.5" ry="2.5" style="stroke:#181818;stroke-width:0.5;" width="125" x="2734.5" y="196.61"/><ellipse cx="2749.5" cy="212.61" fill="#ADD1B2" rx="11" ry="11" style="stroke:#181818;stroke-width:1.0;"/><path d="M2751.9731,218.7531 Q2751.3921,219.0519 2750.7529,219.2013 Q2750.1138,219.3507 2749.4082,219.3507 Q2746.9014,219.3507 2745.5815,217.6989 Q2744.2617,216.047 2744.2617,212.9259 Q2744.2617,209.7965 2745.5815,208.1447 Q2746.9014,206.4928 2749.4082,206.4928 Q2750.1138,206.4928 2750.7612,206.6422 Q2751.4087,206.7916 2751.9731,207.0905 L2751.9731,209.8131 Q2751.3423,209.2321 2750.7488,208.9623 Q2750.1553,208.6925 2749.5244,208.6925 Q2748.1797,208.6925 2747.4949,209.7592 Q2746.8101,210.8258 2746.8101,212.9259 Q2746.8101,215.0177 2747.4949,216.0844 Q2748.1797,217.151 2749.5244,217.151 Q2750.1553,217.151 2750.7488,216.8812 Q2751.3423,216.6115 2751.9731,216.0304 Z " fill="#000000"/><text fill="#000000" font-family="sans-serif" font-size="14" lengthAdjust="spacing" textLength="93" x="2763.5" y="217.901">GameWindow</text><line style="stroke:#181818;stroke-width:0.5;" x1="2735.5" x2="2858.5" y1="228.61" y2="228.61"/><line style="stroke:#181818;stroke-width:0.5;" x1="2735.5" x2="2858.5" y1="236.61" y2="236.61"/></g><!--MD5=[b6968d6f0311dc2ba07018bef6e7bfd3]
class Retangulo--><g id="elem_Retangulo"><rect codeLine="1" fill="#F1F1F1" height="97.4648" id="Retangulo" rx="2.5" ry="2.5" style="stroke:#181818;stroke-width:0.5;" width="566" x="548" y="502.47"/><ellipse cx="791.75" cy="518.47" fill="#ADD1B2" rx="11" ry="11" style="stroke:#181818;stroke-width:1.0;"/><path d="M794.2231,524.6131 Q793.6421,524.9119 793.0029,525.0613 Q792.3638,525.2107 791.6582,525.2107 Q789.1514,525.2107 787.8315,523.5589 Q786.5117,521.907 786.5117,518.7859 Q786.5117,515.6565 787.8315,514.0047 Q789.1514,512.3528 791.6582,512.3528 Q792.3638,512.3528 793.0112,512.5022 Q793.6587,512.6516 794.2231,512.9505 L794.2231,515.6731 Q793.5923,515.0921 792.9988,514.8223 Q792.4053,514.5525 791.7744,514.5525 Q790.4297,514.5525 789.7449,515.6192 Q789.0601,516.6858 789.0601,518.7859 Q789.0601,520.8777 789.7449,521.9444 Q790.4297,523.011 791.7744,523.011 Q792.4053,523.011 792.9988,522.7412 Q793.5923,522.4715 794.2231,521.8904 Z " fill="#000000"/><text fill="#000000" font-family="sans-serif" font-size="14" lengthAdjust="spacing" textLength="70" x="812.25" y="523.761">Retangulo</text><line style="stroke:#181818;stroke-width:0.5;" x1="549" x2="1113" y1="534.47" y2="534.47"/><line style="stroke:#181818;stroke-width:0.5;" x1="549" x2="1113" y1="542.47" y2="542.47"/><ellipse cx="559" cy="556.2141" fill="#84BE84" rx="3" ry="3" style="stroke:#038048;stroke-width:1.0;"/><text fill="#000000" font-family="sans-serif" font-size="14" lengthAdjust="spacing" textLength="264" x="568" y="560.0052">Retangulo(paiRef:Objeto, _rotulo:char)</text><ellipse cx="559" cy="572.7024" fill="#84BE84" rx="3" ry="3" style="stroke:#038048;stroke-width:1.0;"/><text fill="#000000" font-family="sans-serif" font-size="14" lengthAdjust="spacing" textLength="540" x="568" y="576.4934">Retangulo(paiRef:Objeto, _rotulo:char, ptoInfEsq:Ponto4D, ptoSupDir:Ponto4D)</text><ellipse cx="559" cy="589.1907" fill="#84BE84" rx="3" ry="3" style="stroke:#038048;stroke-width:1.0;"/><text fill="#000000" font-family="sans-serif" font-size="14" lengthAdjust="spacing" textLength="196" x="568" y="592.9817">«override» ToString() : string</text></g><!--MD5=[38e8fced9e943fac45fdba9ac5db991f]
class PrimitiveType--><g id="elem_PrimitiveType"><rect fill="#F1F1F1" height="48" id="PrimitiveType" rx="2.5" ry="2.5" style="stroke:#181818;stroke-width:0.5;" width="124" x="1173" y="527.2"/><ellipse cx="1188" cy="543.2" fill="#ADD1B2" rx="11" ry="11" style="stroke:#181818;stroke-width:1.0;"/><path d="M1190.4731,549.3431 Q1189.8921,549.6419 1189.2529,549.7913 Q1188.6138,549.9407 1187.9082,549.9407 Q1185.4014,549.9407 1184.0815,548.2889 Q1182.7617,546.637 1182.7617,543.5159 Q1182.7617,540.3865 1184.0815,538.7347 Q1185.4014,537.0828 1187.9082,537.0828 Q1188.6138,537.0828 1189.2612,537.2322 Q1189.9087,537.3816 1190.4731,537.6805 L1190.4731,540.4031 Q1189.8423,539.8221 1189.2488,539.5523 Q1188.6553,539.2825 1188.0244,539.2825 Q1186.6797,539.2825 1185.9949,540.3492 Q1185.3101,541.4158 1185.3101,543.5159 Q1185.3101,545.6077 1185.9949,546.6744 Q1186.6797,547.741 1188.0244,547.741 Q1188.6553,547.741 1189.2488,547.4712 Q1189.8423,547.2015 1190.4731,546.6204 Z " fill="#000000"/><text fill="#000000" font-family="sans-serif" font-size="14" lengthAdjust="spacing" textLength="92" x="1202" y="548.491">PrimitiveType</text><line style="stroke:#181818;stroke-width:0.5;" x1="1174" x2="1296" y1="559.2" y2="559.2"/><line style="stroke:#181818;stroke-width:0.5;" x1="1174" x2="1296" y1="567.2" y2="567.2"/></g><!--MD5=[03b04ed89c1f7ac76f6e629bfb39a406]
class Shader--><g id="elem_Shader"><rect fill="#F1F1F1" height="48" id="Shader" rx="2.5" ry="2.5" style="stroke:#181818;stroke-width:0.5;" width="80" x="1380" y="527.2"/><ellipse cx="1395" cy="543.2" fill="#ADD1B2" rx="11" ry="11" style="stroke:#181818;stroke-width:1.0;"/><path d="M1397.4731,549.3431 Q1396.8921,549.6419 1396.2529,549.7913 Q1395.6138,549.9407 1394.9082,549.9407 Q1392.4014,549.9407 1391.0815,548.2889 Q1389.7617,546.637 1389.7617,543.5159 Q1389.7617,540.3865 1391.0815,538.7347 Q1392.4014,537.0828 1394.9082,537.0828 Q1395.6138,537.0828 1396.2612,537.2322 Q1396.9087,537.3816 1397.4731,537.6805 L1397.4731,540.4031 Q1396.8423,539.8221 1396.2488,539.5523 Q1395.6553,539.2825 1395.0244,539.2825 Q1393.6797,539.2825 1392.9949,540.3492 Q1392.3101,541.4158 1392.3101,543.5159 Q1392.3101,545.6077 1392.9949,546.6744 Q1393.6797,547.741 1395.0244,547.741 Q1395.6553,547.741 1396.2488,547.4712 Q1396.8423,547.2015 1397.4731,546.6204 Z " fill="#000000"/><text fill="#000000" font-family="sans-serif" font-size="14" lengthAdjust="spacing" textLength="48" x="1409" y="548.491">Shader</text><line style="stroke:#181818;stroke-width:0.5;" x1="1381" x2="1459" y1="559.2" y2="559.2"/><line style="stroke:#181818;stroke-width:0.5;" x1="1381" x2="1459" y1="567.2" y2="567.2"/></g><!--MD5=[554a48e4b96ab0ce4473fbb3aea24bfd]
class Ponto--><g id="elem_Ponto"><rect codeLine="1" fill="#F1F1F1" height="113.9531" id="Ponto" rx="2.5" ry="2.5" style="stroke:#181818;stroke-width:0.5;" width="354" x="1519" y="494.23"/><ellipse cx="1671.75" cy="510.23" fill="#ADD1B2" rx="11" ry="11" style="stroke:#181818;stroke-width:1.0;"/><path d="M1674.2231,516.3731 Q1673.6421,516.6719 1673.0029,516.8213 Q1672.3638,516.9707 1671.6582,516.9707 Q1669.1514,516.9707 1667.8315,515.3189 Q1666.5117,513.667 1666.5117,510.5459 Q1666.5117,507.4165 1667.8315,505.7647 Q1669.1514,504.1128 1671.6582,504.1128 Q1672.3638,504.1128 1673.0112,504.2622 Q1673.6587,504.4116 1674.2231,504.7105 L1674.2231,507.4331 Q1673.5923,506.8521 1672.9988,506.5823 Q1672.4053,506.3125 1671.7744,506.3125 Q1670.4297,506.3125 1669.7449,507.3792 Q1669.0601,508.4458 1669.0601,510.5459 Q1669.0601,512.6377 1669.7449,513.7044 Q1670.4297,514.771 1671.7744,514.771 Q1672.4053,514.771 1672.9988,514.5012 Q1673.5923,514.2315 1674.2231,513.6504 Z " fill="#000000"/><text fill="#000000" font-family="sans-serif" font-size="14" lengthAdjust="spacing" textLength="40" x="1692.25" y="515.521">Ponto</text><line style="stroke:#181818;stroke-width:0.5;" x1="1520" x2="1872" y1="526.23" y2="526.23"/><line style="stroke:#181818;stroke-width:0.5;" x1="1520" x2="1872" y1="534.23" y2="534.23"/><ellipse cx="1530" cy="547.9741" fill="#84BE84" rx="3" ry="3" style="stroke:#038048;stroke-width:1.0;"/><text fill="#000000" font-family="sans-serif" font-size="14" lengthAdjust="spacing" textLength="234" x="1539" y="551.7652">Ponto(paiRef:Objeto, _rotulo:char)</text><ellipse cx="1530" cy="564.4624" fill="#84BE84" rx="3" ry="3" style="stroke:#038048;stroke-width:1.0;"/><text fill="#000000" font-family="sans-serif" font-size="14" lengthAdjust="spacing" textLength="328" x="1539" y="568.2534">Ponto(paiRef:Objeto, _rotulo:char, pto:Ponto4D)</text><ellipse cx="1530" cy="580.9507" fill="#84BE84" rx="3" ry="3" style="stroke:#038048;stroke-width:1.0;"/><text fill="#000000" font-family="sans-serif" font-size="14" lengthAdjust="spacing" textLength="113" x="1539" y="584.7417">Atualizar() : void</text><ellipse cx="1530" cy="597.439" fill="#84BE84" rx="3" ry="3" style="stroke:#038048;stroke-width:1.0;"/><text fill="#000000" font-family="sans-serif" font-size="14" lengthAdjust="spacing" textLength="196" x="1539" y="601.23">«override» ToString() : string</text></g><!--MD5=[56c49a27cf5acac56dd0df2a89b67cf4]
class SegReta--><g id="elem_SegReta"><rect codeLine="1" fill="#F1F1F1" height="97.4648" id="SegReta" rx="2.5" ry="2.5" style="stroke:#181818;stroke-width:0.5;" width="505" x="1908.5" y="502.47"/><ellipse cx="2129.25" cy="518.47" fill="#ADD1B2" rx="11" ry="11" style="stroke:#181818;stroke-width:1.0;"/><path d="M2131.7231,524.6131 Q2131.1421,524.9119 2130.5029,525.0613 Q2129.8638,525.2107 2129.1582,525.2107 Q2126.6514,525.2107 2125.3315,523.5589 Q2124.0117,521.907 2124.0117,518.7859 Q2124.0117,515.6565 2125.3315,514.0047 Q2126.6514,512.3528 2129.1582,512.3528 Q2129.8638,512.3528 2130.5112,512.5022 Q2131.1587,512.6516 2131.7231,512.9505 L2131.7231,515.6731 Q2131.0923,515.0921 2130.4988,514.8223 Q2129.9053,514.5525 2129.2744,514.5525 Q2127.9297,514.5525 2127.2449,515.6192 Q2126.5601,516.6858 2126.5601,518.7859 Q2126.5601,520.8777 2127.2449,521.9444 Q2127.9297,523.011 2129.2744,523.011 Q2129.9053,523.011 2130.4988,522.7412 Q2131.0923,522.4715 2131.7231,521.8904 Z " fill="#000000"/><text fill="#000000" font-family="sans-serif" font-size="14" lengthAdjust="spacing" textLength="55" x="2149.75" y="523.761">SegReta</text><line style="stroke:#181818;stroke-width:0.5;" x1="1909.5" x2="2412.5" y1="534.47" y2="534.47"/><line style="stroke:#181818;stroke-width:0.5;" x1="1909.5" x2="2412.5" y1="542.47" y2="542.47"/><ellipse cx="1919.5" cy="556.2141" fill="#84BE84" rx="3" ry="3" style="stroke:#038048;stroke-width:1.0;"/><text fill="#000000" font-family="sans-serif" font-size="14" lengthAdjust="spacing" textLength="249" x="1928.5" y="560.0052">SegReta(paiRef:Objeto, _rotulo:char)</text><ellipse cx="1919.5" cy="572.7024" fill="#84BE84" rx="3" ry="3" style="stroke:#038048;stroke-width:1.0;"/><text fill="#000000" font-family="sans-serif" font-size="14" lengthAdjust="spacing" textLength="479" x="1928.5" y="576.4934">SegReta(paiRef:Objeto, _rotulo:char, ptoIni:Ponto4D, ptoFim:Ponto4D)</text><ellipse cx="1919.5" cy="589.1907" fill="#84BE84" rx="3" ry="3" style="stroke:#038048;stroke-width:1.0;"/><text fill="#000000" font-family="sans-serif" font-size="14" lengthAdjust="spacing" textLength="196" x="1928.5" y="592.9817">«override» ToString() : string</text></g><!--MD5=[175f95e045c1a44aed0b30df3abe0e5c]
class Program--><g id="elem_Program"><rect codeLine="1" fill="#F1F1F1" height="56.6211" id="Program" rx="2.5" ry="2.5" style="stroke:#181818;stroke-width:0.5;" width="91" x="2894.5" y="192.3"/><ellipse cx="2909.5" cy="212.6105" fill="#ADD1B2" rx="11" ry="11" style="stroke:#181818;stroke-width:1.0;"/><path d="M2911.9731,218.7536 Q2911.3921,219.0524 2910.7529,219.2019 Q2910.1138,219.3513 2909.4082,219.3513 Q2906.9014,219.3513 2905.5815,217.6994 Q2904.2617,216.0476 2904.2617,212.9265 Q2904.2617,209.7971 2905.5815,208.1452 Q2906.9014,206.4934 2909.4082,206.4934 Q2910.1138,206.4934 2910.7612,206.6428 Q2911.4087,206.7922 2911.9731,207.091 L2911.9731,209.8137 Q2911.3423,209.2326 2910.7488,208.9628 Q2910.1553,208.6931 2909.5244,208.6931 Q2908.1797,208.6931 2907.4949,209.7597 Q2906.8101,210.8264 2906.8101,212.9265 Q2906.8101,215.0183 2907.4949,216.0849 Q2908.1797,217.1516 2909.5244,217.1516 Q2910.1553,217.1516 2910.7488,216.8818 Q2911.3423,216.612 2911.9731,216.031 Z " fill="#000000"/><text fill="#000000" font-family="sans-serif" font-size="12" font-style="italic" lengthAdjust="spacing" textLength="42" x="2932" y="208.9016">«static»</text><text fill="#000000" font-family="sans-serif" font-size="14" lengthAdjust="spacing" textLength="59" x="2923.5" y="224.968">Program</text><line style="stroke:#181818;stroke-width:0.5;" x1="2895.5" x2="2984.5" y1="232.9211" y2="232.9211"/><line style="stroke:#181818;stroke-width:0.5;" x1="2895.5" x2="2984.5" y1="240.9211" y2="240.9211"/></g><!--MD5=[a1c8620f95353152e80f8a42e3d2472d]
reverse link Objeto to Poligono--><g id="link_Objeto_Poligono"><path codeLine="5" d="M1086.77,295.83 C870.89,362.25 562.61,457.1 389.96,510.22 " fill="none" id="Objeto-backto-Poligono" style="stroke:#181818;stroke-width:1.0;"/><polygon fill="none" points="1084.54,288.89,1105.71,289.7,1088.65,302.27,1084.54,288.89" style="stroke:#181818;stroke-width:1.0;"/></g><!--MD5=[3c0e7ba23ee97378347dee0d1da8e8b4]
reverse link GameWindow to Mundo--><g id="link_GameWindow_Mundo"><path codeLine="4" d="M2797,265.71 C2797,332.96 2797,459.54 2797,518.5 " fill="none" id="GameWindow-backto-Mundo" style="stroke:#181818;stroke-width:1.0;"/><polygon fill="none" points="2790,265.98,2797,245.98,2804,265.98,2790,265.98" style="stroke:#181818;stroke-width:1.0;"/></g><!--MD5=[59fe4be1ba2cbe3a5ab439d91d8ac599]
reverse link Objeto to Retangulo--><g id="link_Objeto_Retangulo"><path codeLine="6" d="M1089.58,379.24 C1021.93,423.97 953.27,469.37 903.72,502.13 " fill="none" id="Objeto-backto-Retangulo" style="stroke:#181818;stroke-width:1.0;"/><polygon fill="none" points="1085.21,373.08,1105.75,367.89,1092.93,384.76,1085.21,373.08" style="stroke:#181818;stroke-width:1.0;"/></g><!--MD5=[7e8630a5cd5ea67eab064634d547f460]
link Objeto to PrimitiveType--><g id="link_Objeto_PrimitiveType"><path codeLine="26" d="M1267.79,434.35 C1258.02,468.86 1249.14,500.24 1243.09,521.61 " fill="none" id="Objeto-to-PrimitiveType" style="stroke:#181818;stroke-width:1.0;"/><polygon fill="#181818" points="1241.46,526.37,1247.7519,518.7929,1242.8166,521.5576,1240.052,516.6223,1241.46,526.37" style="stroke:#181818;stroke-width:1.0;"/><text fill="#000000" font-family="sans-serif" font-size="13" lengthAdjust="spacing" textLength="83" x="1254.3493" y="516.5602">PrimitivaTipo</text></g><!--MD5=[bb4a0933f4051d72c0c92a1c7a10fb5f]
link Objeto to Shader--><g id="link_Objeto_Shader"><path codeLine="27" d="M1387.56,434.35 C1397.23,468.86 1406.01,500.24 1412,521.61 " fill="none" id="Objeto-to-Shader" style="stroke:#181818;stroke-width:1.0;"/><polygon fill="#181818" points="1413.61,526.37,1415.018,516.6223,1412.2534,521.5576,1407.3181,518.7929,1413.61,526.37" style="stroke:#181818;stroke-width:1.0;"/><text fill="#000000" font-family="sans-serif" font-size="13" lengthAdjust="spacing" textLength="84" x="1316.6052" y="516.5602">shaderObjeto</text></g><!--MD5=[6d6aa3a4321a60a7b3b34b37993619b5]
reverse link Objeto to Ponto--><g id="link_Objeto_Ponto"><path codeLine="7" d="M1565.05,433.28 C1589.77,455.35 1613.09,476.17 1633.01,493.96 " fill="none" id="Objeto-backto-Ponto" style="stroke:#181818;stroke-width:1.0;"/><polygon fill="none" points="1560.76,438.93,1550.5,420.39,1570.08,428.49,1560.76,438.93" style="stroke:#181818;stroke-width:1.0;"/></g><!--MD5=[89ea03af5646cf4d317248fe5750e5c6]
reverse link Objeto to SegReta--><g id="link_Objeto_SegReta"><path codeLine="6" d="M1568.84,316.61 C1722.72,377.32 1915.78,453.47 2038.8,502 " fill="none" id="Objeto-backto-SegReta" style="stroke:#181818;stroke-width:1.0;"/><polygon fill="none" points="1566.35,322.76,1550.31,308.91,1571.49,309.74,1566.35,322.76" style="stroke:#181818;stroke-width:1.0;"/></g><!--MD5=[7d2a328fbcd81223c3b29c00f842d8ae]
@startuml
!include ./Poligono.puml
!include ./Mundo.puml
!include ./Retangulo.puml
!include ./Objeto.puml
!include ./Ponto.puml
!include ./SegReta.puml
!include ./Program.puml
!include ./obj/Debug/net7.0/.NETCoreApp,Version=v7.0.AssemblyAttributes.puml
!include ./obj/Debug/net7.0/CG_N3_Exemplo.AssemblyInfo.puml
@enduml

@startuml
class Poligono {
    + Poligono(paiRef:Objeto, _rotulo:char, pontosPoligono:List<Ponto4D>)
    + <<override>> ToString() : string
}
Objeto <|- - Poligono
class Mundo {
    + Mundo(gameWindowSettings:GameWindowSettings, nativeWindowSettings:NativeWindowSettings)
}
GameWindow <|- - Mundo
class Retangulo {
    + Retangulo(paiRef:Objeto, _rotulo:char)
    + Retangulo(paiRef:Objeto, _rotulo:char, ptoInfEsq:Ponto4D, ptoSupDir:Ponto4D)
    + <<override>> ToString() : string
}
Objeto <|- - Retangulo
class Objeto {
    + Rotulo : char <<get>>
    + PrimitivaTamanho : float <<get>> <<set>>
    + Bbox() : BBox
    + TrocaEixoRotacao(eixo:char) : void
    + Objeto(paiRef:Objeto, _rotulo:char, objetoFilho:Objeto)
    + ObjetoAtualizar() : void
    + Desenhar(matrizGrafo:Transformacao4D) : void
    + FilhoAdicionar(filho:Objeto) : void
    + PontosId(id:int) : Ponto4D
    + PontosAdicionar(pto:Ponto4D) : void
    + PontosAlterar(pto:Ponto4D, posicao:int) : void
    + GrafocenaBusca(_rotulo:char) : Objeto
    + GrafocenaBuscaProximo(objetoAtual:Objeto) : Objeto
    + GrafocenaImprimir(idt:String) : void
    + MatrizImprimir() : void
    + MatrizAtribuirIdentidade() : void
    + MatrizTranslacaoXYZ(tx:double, ty:double, tz:double) : void
    + MatrizEscalaXYZ(Sx:double, Sy:double, Sz:double) : void
    + MatrizEscalaXYZBBox(Sx:double, Sy:double, Sz:double) : void
    + MatrizRotacaoEixo(angulo:double) : void
    + MatrizRotacao(angulo:double) : void
    + MatrizRotacaoZBBox(angulo:double) : void
    + OnUnload() : void
}
Objeto - -> "PrimitivaTipo" PrimitiveType
Objeto - -> "shaderObjeto" Shader
class Ponto {
    + Ponto(paiRef:Objeto, _rotulo:char)
    + Ponto(paiRef:Objeto, _rotulo:char, pto:Ponto4D)
    + Atualizar() : void
    + <<override>> ToString() : string
}
Objeto <|- - Ponto
class SegReta {
    + SegReta(paiRef:Objeto, _rotulo:char)
    + SegReta(paiRef:Objeto, _rotulo:char, ptoIni:Ponto4D, ptoFim:Ponto4D)
    + <<override>> ToString() : string
}
Objeto <|- - SegReta
class Program <<static>> {
}
@enduml

PlantUML version 1.2022.7(Mon Aug 22 14:01:30 BRT 2022)
(GPL source distribution)
Java Runtime: OpenJDK Runtime Environment
JVM: OpenJDK 64-Bit Server VM
Default Encoding: UTF-8
Language: en
Country: BR
--></g></svg>