<?xml version="1.0" encoding="UTF-8" standalone="no"?><svg xmlns="http://www.w3.org/2000/svg" xmlns:xlink="http://www.w3.org/1999/xlink" contentStyleType="text/css" height="569px" preserveAspectRatio="none" style="width:456px;height:569px;background:#FFFFFF;" version="1.1" viewBox="0 0 456 569" width="456px" zoomAndPan="magnify"><defs/><g><!--MD5=[3051a6a8f877a755a60c7cfd1e6f410a]
class Objeto--><g id="elem_Objeto"><rect codeLine="1" fill="#F1F1F1" height="427.2305" id="Objeto" rx="2.5" ry="2.5" style="stroke:#181818;stroke-width:0.5;" width="442" x="7" y="7"/><ellipse cx="200.75" cy="23" fill="#ADD1B2" rx="11" ry="11" style="stroke:#181818;stroke-width:1.0;"/><path d="M203.2231,29.1431 Q202.6421,29.4419 202.0029,29.5913 Q201.3638,29.7407 200.6582,29.7407 Q198.1514,29.7407 196.8315,28.0889 Q195.5117,26.437 195.5117,23.3159 Q195.5117,20.1865 196.8315,18.5347 Q198.1514,16.8828 200.6582,16.8828 Q201.3638,16.8828 202.0112,17.0322 Q202.6587,17.1816 203.2231,17.4805 L203.2231,20.2031 Q202.5923,19.6221 201.9988,19.3523 Q201.4053,19.0825 200.7744,19.0825 Q199.4297,19.0825 198.7449,20.1492 Q198.0601,21.2158 198.0601,23.3159 Q198.0601,25.4077 198.7449,26.4744 Q199.4297,27.541 200.7744,27.541 Q201.4053,27.541 201.9988,27.2712 Q202.5923,27.0015 203.2231,26.4204 Z " fill="#000000"/><text fill="#000000" font-family="sans-serif" font-size="14" lengthAdjust="spacing" textLength="46" x="221.25" y="28.291">Objeto</text><line style="stroke:#181818;stroke-width:0.5;" x1="8" x2="448" y1="39" y2="39"/><ellipse cx="18" cy="52.7441" fill="none" rx="3" ry="3" style="stroke:#038048;stroke-width:1.0;"/><text fill="#000000" font-family="sans-serif" font-size="14" lengthAdjust="spacing" textLength="127" x="27" y="56.5352">Rotulo : char «get»</text><ellipse cx="18" cy="69.2324" fill="none" rx="3" ry="3" style="stroke:#038048;stroke-width:1.0;"/><text fill="#000000" font-family="sans-serif" font-size="14" lengthAdjust="spacing" textLength="245" x="27" y="73.0234">PrimitivaTamanho : float «get» «set»</text><line style="stroke:#181818;stroke-width:0.5;" x1="8" x2="448" y1="79.9766" y2="79.9766"/><ellipse cx="18" cy="93.7207" fill="#84BE84" rx="3" ry="3" style="stroke:#038048;stroke-width:1.0;"/><text fill="#000000" font-family="sans-serif" font-size="14" lengthAdjust="spacing" textLength="91" x="27" y="97.5117">Bbox() : BBox</text><ellipse cx="18" cy="110.209" fill="#84BE84" rx="3" ry="3" style="stroke:#038048;stroke-width:1.0;"/><text fill="#000000" font-family="sans-serif" font-size="14" lengthAdjust="spacing" textLength="239" x="27" y="114">TrocaEixoRotacao(eixo:char) : void</text><ellipse cx="18" cy="126.6973" fill="#84BE84" rx="3" ry="3" style="stroke:#038048;stroke-width:1.0;"/><text fill="#000000" font-family="sans-serif" font-size="14" lengthAdjust="spacing" textLength="376" x="27" y="130.4883">Objeto(paiRef:Objeto, _rotulo:char, objetoFilho:Objeto)</text><ellipse cx="18" cy="143.1855" fill="#84BE84" rx="3" ry="3" style="stroke:#038048;stroke-width:1.0;"/><text fill="#000000" font-family="sans-serif" font-size="14" lengthAdjust="spacing" textLength="159" x="27" y="146.9766">ObjetoAtualizar() : void</text><ellipse cx="18" cy="159.6738" fill="#84BE84" rx="3" ry="3" style="stroke:#038048;stroke-width:1.0;"/><text fill="#000000" font-family="sans-serif" font-size="14" lengthAdjust="spacing" textLength="325" x="27" y="163.4648">Desenhar(matrizGrafo:Transformacao4D) : void</text><ellipse cx="18" cy="176.1621" fill="#84BE84" rx="3" ry="3" style="stroke:#038048;stroke-width:1.0;"/><text fill="#000000" font-family="sans-serif" font-size="14" lengthAdjust="spacing" textLength="232" x="27" y="179.9531">FilhoAdicionar(filho:Objeto) : void</text><ellipse cx="18" cy="192.6504" fill="#84BE84" rx="3" ry="3" style="stroke:#038048;stroke-width:1.0;"/><text fill="#000000" font-family="sans-serif" font-size="14" lengthAdjust="spacing" textLength="176" x="27" y="196.4414">PontosId(id:int) : Ponto4D</text><ellipse cx="18" cy="209.1387" fill="#84BE84" rx="3" ry="3" style="stroke:#038048;stroke-width:1.0;"/><text fill="#000000" font-family="sans-serif" font-size="14" lengthAdjust="spacing" textLength="250" x="27" y="212.9297">PontosAdicionar(pto:Ponto4D) : void</text><ellipse cx="18" cy="225.627" fill="#84BE84" rx="3" ry="3" style="stroke:#038048;stroke-width:1.0;"/><text fill="#000000" font-family="sans-serif" font-size="14" lengthAdjust="spacing" textLength="314" x="27" y="229.418">PontosAlterar(pto:Ponto4D, posicao:int) : void</text><ellipse cx="18" cy="242.1152" fill="#84BE84" rx="3" ry="3" style="stroke:#038048;stroke-width:1.0;"/><text fill="#000000" font-family="sans-serif" font-size="14" lengthAdjust="spacing" textLength="260" x="27" y="245.9063">GrafocenaBusca(_rotulo:char) : Objeto</text><ellipse cx="18" cy="258.6035" fill="#84BE84" rx="3" ry="3" style="stroke:#038048;stroke-width:1.0;"/><text fill="#000000" font-family="sans-serif" font-size="14" lengthAdjust="spacing" textLength="365" x="27" y="262.3945">GrafocenaBuscaProximo(objetoAtual:Objeto) : Objeto</text><ellipse cx="18" cy="275.0918" fill="#84BE84" rx="3" ry="3" style="stroke:#038048;stroke-width:1.0;"/><text fill="#000000" font-family="sans-serif" font-size="14" lengthAdjust="spacing" textLength="243" x="27" y="278.8828">GrafocenaImprimir(idt:String) : void</text><ellipse cx="18" cy="291.5801" fill="#84BE84" rx="3" ry="3" style="stroke:#038048;stroke-width:1.0;"/><text fill="#000000" font-family="sans-serif" font-size="14" lengthAdjust="spacing" textLength="153" x="27" y="295.3711">MatrizImprimir() : void</text><ellipse cx="18" cy="308.0684" fill="#84BE84" rx="3" ry="3" style="stroke:#038048;stroke-width:1.0;"/><text fill="#000000" font-family="sans-serif" font-size="14" lengthAdjust="spacing" textLength="220" x="27" y="311.8594">MatrizAtribuirIdentidade() : void</text><ellipse cx="18" cy="324.5566" fill="#84BE84" rx="3" ry="3" style="stroke:#038048;stroke-width:1.0;"/><text fill="#000000" font-family="sans-serif" font-size="14" lengthAdjust="spacing" textLength="406" x="27" y="328.3477">MatrizTranslacaoXYZ(tx:double, ty:double, tz:double) : void</text><ellipse cx="18" cy="341.0449" fill="#84BE84" rx="3" ry="3" style="stroke:#038048;stroke-width:1.0;"/><text fill="#000000" font-family="sans-serif" font-size="14" lengthAdjust="spacing" textLength="382" x="27" y="344.8359">MatrizEscalaXYZ(Sx:double, Sy:double, Sz:double) : void</text><ellipse cx="18" cy="357.5332" fill="#84BE84" rx="3" ry="3" style="stroke:#038048;stroke-width:1.0;"/><text fill="#000000" font-family="sans-serif" font-size="14" lengthAdjust="spacing" textLength="416" x="27" y="361.3242">MatrizEscalaXYZBBox(Sx:double, Sy:double, Sz:double) : void</text><ellipse cx="18" cy="374.0215" fill="#84BE84" rx="3" ry="3" style="stroke:#038048;stroke-width:1.0;"/><text fill="#000000" font-family="sans-serif" font-size="14" lengthAdjust="spacing" textLength="279" x="27" y="377.8125">MatrizRotacaoEixo(angulo:double) : void</text><ellipse cx="18" cy="390.5098" fill="#84BE84" rx="3" ry="3" style="stroke:#038048;stroke-width:1.0;"/><text fill="#000000" font-family="sans-serif" font-size="14" lengthAdjust="spacing" textLength="249" x="27" y="394.3008">MatrizRotacao(angulo:double) : void</text><ellipse cx="18" cy="406.998" fill="#84BE84" rx="3" ry="3" style="stroke:#038048;stroke-width:1.0;"/><text fill="#000000" font-family="sans-serif" font-size="14" lengthAdjust="spacing" textLength="291" x="27" y="410.7891">MatrizRotacaoZBBox(angulo:double) : void</text><ellipse cx="18" cy="423.4863" fill="#84BE84" rx="3" ry="3" style="stroke:#038048;stroke-width:1.0;"/><text fill="#000000" font-family="sans-serif" font-size="14" lengthAdjust="spacing" textLength="120" x="27" y="427.2773">OnUnload() : void</text></g><!--MD5=[38e8fced9e943fac45fdba9ac5db991f]
class PrimitiveType--><g id="elem_PrimitiveType"><rect fill="#F1F1F1" height="48" id="PrimitiveType" rx="2.5" ry="2.5" style="stroke:#181818;stroke-width:0.5;" width="124" x="74" y="514.23"/><ellipse cx="89" cy="530.23" fill="#ADD1B2" rx="11" ry="11" style="stroke:#181818;stroke-width:1.0;"/><path d="M91.4731,536.3731 Q90.8921,536.6719 90.2529,536.8213 Q89.6138,536.9707 88.9082,536.9707 Q86.4014,536.9707 85.0815,535.3189 Q83.7617,533.667 83.7617,530.5459 Q83.7617,527.4165 85.0815,525.7647 Q86.4014,524.1128 88.9082,524.1128 Q89.6138,524.1128 90.2612,524.2622 Q90.9087,524.4116 91.4731,524.7105 L91.4731,527.4331 Q90.8423,526.8521 90.2488,526.5823 Q89.6553,526.3125 89.0244,526.3125 Q87.6797,526.3125 86.9949,527.3792 Q86.3101,528.4458 86.3101,530.5459 Q86.3101,532.6377 86.9949,533.7044 Q87.6797,534.771 89.0244,534.771 Q89.6553,534.771 90.2488,534.5012 Q90.8423,534.2315 91.4731,533.6504 Z " fill="#000000"/><text fill="#000000" font-family="sans-serif" font-size="14" lengthAdjust="spacing" textLength="92" x="103" y="535.521">PrimitiveType</text><line style="stroke:#181818;stroke-width:0.5;" x1="75" x2="197" y1="546.23" y2="546.23"/><line style="stroke:#181818;stroke-width:0.5;" x1="75" x2="197" y1="554.23" y2="554.23"/></g><!--MD5=[03b04ed89c1f7ac76f6e629bfb39a406]
class Shader--><g id="elem_Shader"><rect fill="#F1F1F1" height="48" id="Shader" rx="2.5" ry="2.5" style="stroke:#181818;stroke-width:0.5;" width="80" x="281" y="514.23"/><ellipse cx="296" cy="530.23" fill="#ADD1B2" rx="11" ry="11" style="stroke:#181818;stroke-width:1.0;"/><path d="M298.4731,536.3731 Q297.8921,536.6719 297.2529,536.8213 Q296.6138,536.9707 295.9082,536.9707 Q293.4014,536.9707 292.0815,535.3189 Q290.7617,533.667 290.7617,530.5459 Q290.7617,527.4165 292.0815,525.7647 Q293.4014,524.1128 295.9082,524.1128 Q296.6138,524.1128 297.2612,524.2622 Q297.9087,524.4116 298.4731,524.7105 L298.4731,527.4331 Q297.8423,526.8521 297.2488,526.5823 Q296.6553,526.3125 296.0244,526.3125 Q294.6797,526.3125 293.9949,527.3792 Q293.3101,528.4458 293.3101,530.5459 Q293.3101,532.6377 293.9949,533.7044 Q294.6797,534.771 296.0244,534.771 Q296.6553,534.771 297.2488,534.5012 Q297.8423,534.2315 298.4731,533.6504 Z " fill="#000000"/><text fill="#000000" font-family="sans-serif" font-size="14" lengthAdjust="spacing" textLength="48" x="310" y="535.521">Shader</text><line style="stroke:#181818;stroke-width:0.5;" x1="282" x2="360" y1="546.23" y2="546.23"/><line style="stroke:#181818;stroke-width:0.5;" x1="282" x2="360" y1="554.23" y2="554.23"/></g><!--MD5=[7e8630a5cd5ea67eab064634d547f460]
link Objeto to PrimitiveType--><g id="link_Objeto_PrimitiveType"><path codeLine="26" d="M166,434.32 C157.43,463.73 149.7,490.23 144.24,508.97 " fill="none" id="Objeto-to-PrimitiveType" style="stroke:#181818;stroke-width:1.0;"/><polygon fill="#181818" points="142.62,513.53,148.98,506.01,144.02,508.73,141.3,503.77,142.62,513.53" style="stroke:#181818;stroke-width:1.0;"/><text fill="#000000" font-family="sans-serif" font-size="13" lengthAdjust="spacing" textLength="83" x="156.1538" y="503.367">PrimitivaTipo</text></g><!--MD5=[bb4a0933f4051d72c0c92a1c7a10fb5f]
link Objeto to Shader--><g id="link_Objeto_Shader"><path codeLine="27" d="M290.68,434.32 C299.34,463.73 307.15,490.23 312.67,508.97 " fill="none" id="Objeto-to-Shader" style="stroke:#181818;stroke-width:1.0;"/><polygon fill="#181818" points="314.31,513.53,315.6032,503.7664,312.8969,508.7339,307.9294,506.0275,314.31,513.53" style="stroke:#181818;stroke-width:1.0;"/><text fill="#000000" font-family="sans-serif" font-size="13" lengthAdjust="spacing" textLength="84" x="216.6159" y="503.367">shaderObjeto</text></g><!--MD5=[7bf70ef8c32d9d11b50975b408d2147e]
@startuml
class Objeto {
    + Rotulo : char <<get>>
    + PrimitivaTamanho : float <<get>> <<set>>
    + Bbox() : BBox
    + TrocaEixoRotacao(eixo:char) : void
    + Objeto(paiRef:Objeto, _rotulo:char, objetoFilho:Objeto)
    + ObjetoAtualizar() : void
    + Desenhar(matrizGrafo:Transformacao4D) : void
    + FilhoAdicionar(filho:Objeto) : void
    + PontosId(id:int) : Ponto4D
    + PontosAdicionar(pto:Ponto4D) : void
    + PontosAlterar(pto:Ponto4D, posicao:int) : void
    + GrafocenaBusca(_rotulo:char) : Objeto
    + GrafocenaBuscaProximo(objetoAtual:Objeto) : Objeto
    + GrafocenaImprimir(idt:String) : void
    + MatrizImprimir() : void
    + MatrizAtribuirIdentidade() : void
    + MatrizTranslacaoXYZ(tx:double, ty:double, tz:double) : void
    + MatrizEscalaXYZ(Sx:double, Sy:double, Sz:double) : void
    + MatrizEscalaXYZBBox(Sx:double, Sy:double, Sz:double) : void
    + MatrizRotacaoEixo(angulo:double) : void
    + MatrizRotacao(angulo:double) : void
    + MatrizRotacaoZBBox(angulo:double) : void
    + OnUnload() : void
}
Objeto - -> "PrimitivaTipo" PrimitiveType
Objeto - -> "shaderObjeto" Shader
@enduml

PlantUML version 1.2022.7(Mon Aug 22 14:01:30 BRT 2022)
(GPL source distribution)
Java Runtime: OpenJDK Runtime Environment
JVM: OpenJDK 64-Bit Server VM
Default Encoding: UTF-8
Language: en
Country: BR
--></g></svg>